<?xml version="1.0" encoding="UTF-8"?>
<!-- Generator: visioncortex VTracer 0.6.4 -->
<svg version="1.1" xmlns="http://www.w3.org/2000/svg" width="16" height="16">
<path d="M0,0 L10,0 L10,1 L0,1 Z " fill="#E0E0E0" transform="translate(6,13)"/>
<path d="M0,0 L10,0 L10,1 L0,1 Z " fill="#E0E0E0" transform="translate(6,9)"/>
<path d="M0,0 L1,0 L1,1 L3,1 L3,3 L2,3 L2,4 L0,4 Z " fill="#E0E0E0" transform="translate(0,4)"/>
<path d="M0,0 L10,0 L10,2 L0,2 Z " fill="#E0E0E0" transform="translate(6,5)"/>
<path d="M0,0 L10,0 L10,2 L0,2 Z " fill="#E0E0E0" opacity="0.9882353" transform="translate(6,1)"/>
<path d="M0,0 L10,0 L10,1 L0,1 Z " fill="#E0E0E0" opacity="0.9882353" transform="translate(6,14)"/>
<path d="M0,0 L10,0 L10,1 L0,1 Z " fill="#E0E0E0" opacity="0.015686275" transform="translate(6,12)"/>
<path d="M0,0 L10,0 L10,1 L0,1 Z " fill="#E0E0E0" opacity="0.9882353" transform="translate(6,10)"/>
<path d="M0,0 L10,0 L10,1 L0,1 Z " fill="#E0E0E0" opacity="0.015686275" transform="translate(6,8)"/>
<path d="M0,0 L10,0 L10,1 L0,1 Z " fill="#E0E0E0" transform="translate(6,1)"/>
<path d="M0,0 L1,0 L1,1 L0,1 Z " fill="#E0E0E0" transform="translate(0,4)"/>
<path d="M0,0 L1,0 L1,1 L0,1 Z " fill="#E0E0E0" opacity="0.41960785" transform="translate(4,6)"/>
<path d="M0,0 L1,0 L1,1 L0,1 Z " fill="#E0E0E0" opacity="0.015686275" transform="translate(0,9)"/>
<path d="M0,0 L1,0 L1,1 L0,1 Z " fill="#E2E2E2" opacity="0.23921569" transform="translate(1,8)"/>
<path d="M0,0 L1,0 L1,1 L0,1 Z " fill="#E0E0E0" opacity="0.8235294" transform="translate(0,8)"/>
<path d="M0,0 L1,0 L1,1 L0,1 Z " fill="#E0E0E0" opacity="0.09411765" transform="translate(3,7)"/>
<path d="M0,0 L1,0 L1,1 L0,1 Z " fill="#E0E0E0" opacity="0.6392157" transform="translate(2,7)"/>
<path d="M0,0 L1,0 L1,1 L0,1 Z " fill="#E0E0E0" opacity="0.94509804" transform="translate(3,6)"/>
<path d="M0,0 L1,0 L1,1 L0,1 Z " fill="#E2E2E2" opacity="0.17254902" transform="translate(4,5)"/>
<path d="M0,0 L1,0 L1,1 L0,1 Z " fill="#E0E0E0" opacity="0.75686276" transform="translate(3,5)"/>
<path d="M0,0 L1,0 L1,1 L0,1 Z " fill="#E1E1E1" opacity="0.36078432" transform="translate(2,4)"/>
<path d="M0,0 L1,0 L1,1 L0,1 Z " fill="#E0E0E0" opacity="0.90588236" transform="translate(1,4)"/>
<path d="M0,0 L1,0 L1,1 L0,1 Z " fill="#E1E1E1" opacity="0.05490196" transform="translate(1,3)"/>
<path d="M0,0 L1,0 L1,1 L0,1 Z " fill="#E1E1E1" opacity="0.56078434" transform="translate(0,3)"/>
</svg>
