<?xml version="1.0" encoding="UTF-8"?>
<!-- Generator: visioncortex VTracer 0.6.4 -->
<svg version="1.1" xmlns="http://www.w3.org/2000/svg" width="16" height="16">
<path d="M0,0 L1,0 L1,3 L0,3 Z M5,0 L6,0 L6,2 L5,2 L5,4 L7,4 L7,5 L4,5 L4,9 L6,9 L6,10 L3,10 L3,11 L2,11 L2,14 L0,14 L0,13 L1,13 L1,10 L-2,10 L-2,13 L-3,13 L-3,14 L-4,14 L-4,12 L-3,12 L-3,10 L-5,10 L-5,9 L-2,9 L-2,5 L-4,5 L-4,4 L-1,4 L-1,3 L0,3 L0,4 L4,4 L4,1 L5,1 Z M0,5 L0,7 L-1,7 L-1,9 L2,9 L2,7 L3,7 L3,5 Z " fill="#808080" transform="translate(7,1)"/>
<path d="M0,0 L1,0 L1,2 L2,2 L2,3 L0,3 L0,6 L-1,6 L-1,7 L-2,7 L-2,5 L-1,5 L-1,3 L-3,3 L-3,2 L0,2 Z M2,6 L3,6 L3,7 L2,7 Z " fill="#808080" transform="translate(5,8)"/>
<path d="M0,0 L1,0 L1,3 L3,3 L3,4 L0,4 L0,5 L-1,5 L-1,8 L-2,8 L-2,4 L-3,4 L-3,3 L-1,3 L-1,1 L0,1 Z " fill="#808080" transform="translate(10,7)"/>
<path d="M0,0 L1,0 L1,1 L0,1 Z M-1,1 L0,1 L0,2 L3,2 L3,3 L0,3 L0,5 L-2,5 L-2,3 L-4,3 L-4,2 L-1,2 Z " fill="#808080" transform="translate(7,3)"/>
<path d="M0,0 L1,0 L1,2 L0,2 L0,3 L-1,3 L-1,1 L0,1 Z " fill="#808080" transform="translate(12,1)"/>
<path d="M0,0 L1,0 L1,1 L0,1 Z " fill="#808080" opacity="0.8784314" transform="translate(12,9)"/>
<path d="M0,0 L1,0 L1,1 L0,1 Z " fill="#808080" opacity="0.91764706" transform="translate(4,6)"/>
<path d="M0,0 L1,0 L1,2 L0,2 Z " fill="#808080" transform="translate(7,1)"/>
<path d="M0,0 L2,0 L2,1 L0,1 Z " fill="#808080" opacity="0.09411765" transform="translate(1,11)"/>
<path d="M0,0 L1,0 L1,1 L0,1 Z " fill="#808080" transform="translate(7,14)"/>
<path d="M0,0 L1,0 L1,1 L0,1 Z M-1,1 L0,1 L0,2 L-1,2 Z " fill="#808080" transform="translate(4,13)"/>
<path d="M0,0 L1,0 L1,1 L0,1 Z " fill="#808080" opacity="0.09411765" transform="translate(11,11)"/>
<path d="M0,0 L1,0 L1,1 L0,1 Z " fill="#808080" opacity="0.9490196" transform="translate(6,9)"/>
<path d="M0,0 L1,0 L1,1 L0,1 Z " fill="#808080" opacity="0.09411765" transform="translate(13,4)"/>
<path d="M0,0 L1,0 L1,1 L0,1 Z " fill="#808080" opacity="0.09411765" transform="translate(3,4)"/>
<path d="M0,0 L1,0 L1,1 L0,1 Z " fill="#828282" opacity="0.21568628" transform="translate(7,11)"/>
<path d="M0,0 L1,0 L1,1 L0,1 Z " fill="#808080" opacity="0.8784314" transform="translate(2,9)"/>
<path d="M0,0 L2,0 L2,1 L0,1 Z " fill="#808080" opacity="0.9098039" transform="translate(12,6)"/>
<path d="M0,0 L1,0 L1,1 L0,1 Z " fill="#808080" opacity="0.9098039" transform="translate(8,6)"/>
<path d="M0,0 L1,0 L1,1 L0,1 Z " fill="#808080" opacity="0.15686275" transform="translate(8,4)"/>
<path d="M0,0 L1,0 L1,1 L0,1 Z M-1,1 L0,1 L0,2 L-1,2 Z " fill="#808080" transform="translate(12,1)"/>
<path d="M0,0 L1,0 L1,1 L0,1 Z " fill="#808080" opacity="0.28235295" transform="translate(9,14)"/>
<path d="M0,0 L1,0 L1,2 L0,2 Z " fill="#808080" transform="translate(8,13)"/>
<path d="M0,0 L1,0 L1,1 L0,1 Z " fill="#838383" opacity="0.13725491" transform="translate(5,13)"/>
<path d="M0,0 L1,0 L1,1 L0,1 Z M-1,1 L0,1 L0,2 L-1,2 Z " fill="#808080" transform="translate(4,12)"/>
<path d="M0,0 L1,0 L1,1 L0,1 Z " fill="#808080" opacity="0.89411765" transform="translate(3,12)"/>
<path d="M0,0 L1,0 L1,1 L0,1 Z " fill="#808080" opacity="0.05882353" transform="translate(13,11)"/>
<path d="M0,0 L1,0 L1,2 L0,2 Z " fill="#808080" opacity="0.003921569" transform="translate(0,10)"/>
<path d="M0,0 L1,0 L1,1 L0,1 Z " fill="#808080" opacity="0.67058825" transform="translate(13,10)"/>
<path d="M0,0 L1,0 L1,1 L0,1 Z " fill="#808080" transform="translate(2,10)"/>
<path d="M0,0 L1,0 L1,1 L0,1 Z " fill="#808080" opacity="0.92156863" transform="translate(8,9)"/>
<path d="M0,0 L1,0 L1,1 L0,1 Z " fill="#808080" opacity="0.22745098" transform="translate(11,8)"/>
<path d="M0,0 L1,0 L1,1 L0,1 Z " fill="#808080" opacity="0.60784316" transform="translate(4,8)"/>
<path d="M0,0 L1,0 L1,1 L0,1 Z M-1,1 L0,1 L0,2 L-1,2 Z " fill="#808080" transform="translate(10,7)"/>
<path d="M0,0 L1,0 L1,1 L0,1 Z " fill="#808080" opacity="0.6862745" transform="translate(2,6)"/>
<path d="M0,0 L2,0 L2,1 L0,1 Z " fill="#808080" transform="translate(8,5)"/>
<path d="M0,0 L2,0 L2,1 L0,1 Z " fill="#808080" transform="translate(3,5)"/>
<path d="M0,0 L1,0 L1,1 L0,1 Z " fill="#808080" opacity="0.38431373" transform="translate(5,4)"/>
<path d="M0,0 L1,0 L1,1 L0,1 Z " fill="#808080" opacity="0.4862745" transform="translate(10,3)"/>
<path d="M0,0 L1,0 L1,1 L0,1 Z " fill="#808080" opacity="0.17254902" transform="translate(13,2)"/>
<path d="M0,0 L1,0 L1,1 L0,1 Z " fill="#808080" opacity="0.6745098" transform="translate(6,2)"/>
<path d="M0,0 L1,0 L1,1 L0,1 Z " fill="#808080" opacity="0.101960786" transform="translate(6,14)"/>
<path d="M0,0 L1,0 L1,1 L0,1 Z " fill="#808080" opacity="0.8156863" transform="translate(4,14)"/>
<path d="M0,0 L1,0 L1,1 L0,1 Z " fill="#808080" opacity="0.52156866" transform="translate(2,14)"/>
<path d="M0,0 L1,0 L1,1 L0,1 Z " fill="#808080" opacity="0.6039216" transform="translate(9,13)"/>
<path d="M0,0 L1,0 L1,1 L0,1 Z " fill="#808080" opacity="0.77254903" transform="translate(7,13)"/>
<path d="M0,0 L1,0 L1,1 L0,1 Z " fill="#828282" opacity="0.20784314" transform="translate(2,13)"/>
<path d="M0,0 L1,0 L1,1 L0,1 Z " fill="#808080" opacity="0.011764706" transform="translate(10,12)"/>
<path d="M0,0 L1,0 L1,1 L0,1 Z " fill="#808080" opacity="0.91764706" transform="translate(9,12)"/>
<path d="M0,0 L1,0 L1,1 L0,1 Z " fill="#808080" opacity="0.44705883" transform="translate(7,12)"/>
<path d="M0,0 L1,0 L1,1 L0,1 Z " fill="#808080" opacity="0.45490196" transform="translate(5,12)"/>
<path d="M0,0 L1,0 L1,1 L0,1 Z " fill="#808080" opacity="0.007843138" transform="translate(2,12)"/>
<path d="M0,0 L1,0 L1,1 L0,1 Z " fill="#808080" opacity="0.09411765" transform="translate(12,11)"/>
<path d="M0,0 L1,0 L1,1 L0,1 Z " fill="#808080" opacity="0.30588236" transform="translate(10,11)"/>
<path d="M0,0 L1,0 L1,1 L0,1 Z " fill="#808080" opacity="0.09411765" transform="translate(6,11)"/>
<path d="M0,0 L1,0 L1,1 L0,1 Z " fill="#808080" opacity="0.7882353" transform="translate(5,11)"/>
<path d="M0,0 L1,0 L1,1 L0,1 Z " fill="#808080" opacity="0.6392157" transform="translate(3,11)"/>
<path d="M0,0 L1,0 L1,1 L0,1 Z " fill="#808080" transform="translate(3,10)"/>
<path d="M0,0 L1,0 L1,1 L0,1 Z " fill="#808080" opacity="0.9607843" transform="translate(1,10)"/>
<path d="M0,0 L1,0 L1,1 L0,1 Z " fill="#808080" opacity="0.6745098" transform="translate(13,9)"/>
<path d="M0,0 L1,0 L1,1 L0,1 Z " fill="#808080" opacity="0.8862745" transform="translate(11,9)"/>
<path d="M0,0 L1,0 L1,1 L0,1 Z " fill="#808080" opacity="0.8784314" transform="translate(7,9)"/>
<path d="M0,0 L1,0 L1,1 L0,1 Z " fill="#808080" opacity="0.98039216" transform="translate(4,9)"/>
<path d="M0,0 L1,0 L1,1 L0,1 Z " fill="#808080" opacity="0.8784314" transform="translate(3,9)"/>
<path d="M0,0 L1,0 L1,1 L0,1 Z " fill="#808080" opacity="0.75686276" transform="translate(1,9)"/>
<path d="M0,0 L1,0 L1,1 L0,1 Z " fill="#838383" opacity="0.13725491" transform="translate(8,8)"/>
<path d="M0,0 L1,0 L1,1 L0,1 Z " fill="#808080" opacity="0.7490196" transform="translate(6,8)"/>
<path d="M0,0 L1,0 L1,1 L0,1 Z " fill="#808080" opacity="0.5647059" transform="translate(11,7)"/>
<path d="M0,0 L1,0 L1,1 L0,1 Z " fill="#808080" opacity="0.8" transform="translate(9,7)"/>
<path d="M0,0 L1,0 L1,1 L0,1 Z " fill="#808080" opacity="0.101960786" transform="translate(7,7)"/>
<path d="M0,0 L1,0 L1,1 L0,1 Z " fill="#808080" transform="translate(6,7)"/>
<path d="M0,0 L1,0 L1,1 L0,1 Z " fill="#808080" opacity="0.26666668" transform="translate(4,7)"/>
<path d="M0,0 L1,0 L1,1 L0,1 Z " fill="#808080" opacity="0.7529412" transform="translate(14,6)"/>
<path d="M0,0 L1,0 L1,1 L0,1 Z " fill="#808080" opacity="0.98039216" transform="translate(11,6)"/>
<path d="M0,0 L1,0 L1,1 L0,1 Z " fill="#808080" opacity="0.96862745" transform="translate(9,6)"/>
<path d="M0,0 L1,0 L1,1 L0,1 Z " fill="#808080" opacity="0.9372549" transform="translate(7,6)"/>
<path d="M0,0 L1,0 L1,1 L0,1 Z " fill="#808080" opacity="0.9098039" transform="translate(3,6)"/>
<path d="M0,0 L1,0 L1,1 L0,1 Z " fill="#808080" opacity="0.9254902" transform="translate(14,5)"/>
<path d="M0,0 L1,0 L1,1 L0,1 Z " fill="#808080" transform="translate(13,5)"/>
<path d="M0,0 L1,0 L1,1 L0,1 Z " fill="#808080" opacity="0.65882355" transform="translate(2,5)"/>
<path d="M0,0 L1,0 L1,1 L0,1 Z " fill="#808080" opacity="0.09411765" transform="translate(14,4)"/>
<path d="M0,0 L1,0 L1,1 L0,1 Z " fill="#808080" opacity="0.58431375" transform="translate(12,4)"/>
<path d="M0,0 L1,0 L1,1 L0,1 Z " fill="#808080" opacity="0.8156863" transform="translate(10,4)"/>
<path d="M0,0 L1,0 L1,1 L0,1 Z " fill="#808080" opacity="0.09411765" transform="translate(9,4)"/>
<path d="M0,0 L1,0 L1,1 L0,1 Z " fill="#808080" opacity="0.99215686" transform="translate(7,4)"/>
<path d="M0,0 L1,0 L1,1 L0,1 Z " fill="#808080" opacity="0.09411765" transform="translate(4,4)"/>
<path d="M0,0 L1,0 L1,1 L0,1 Z " fill="#808080" opacity="0.05882353" transform="translate(2,4)"/>
<path d="M0,0 L1,0 L1,1 L0,1 Z " fill="#808080" opacity="0.003921569" transform="translate(13,3)"/>
<path d="M0,0 L1,0 L1,1 L0,1 Z " fill="#808080" opacity="0.8509804" transform="translate(12,3)"/>
<path d="M0,0 L1,0 L1,1 L0,1 Z " fill="#818181" opacity="0.3647059" transform="translate(8,3)"/>
<path d="M0,0 L1,0 L1,1 L0,1 Z " fill="#808080" opacity="0.9647059" transform="translate(6,3)"/>
<path d="M0,0 L1,0 L1,1 L0,1 Z " fill="#808080" opacity="0.043137256" transform="translate(5,3)"/>
<path d="M0,0 L1,0 L1,1 L0,1 Z " fill="#838383" opacity="0.16078432" transform="translate(10,2)"/>
<path d="M0,0 L1,0 L1,1 L0,1 Z " fill="#808080" opacity="0.6901961" transform="translate(8,2)"/>
<path d="M0,0 L1,0 L1,1 L0,1 Z " fill="#818181" opacity="0.49803922" transform="translate(13,1)"/>
<path d="M0,0 L1,0 L1,1 L0,1 Z " fill="#808080" opacity="0.8392157" transform="translate(11,1)"/>
<path d="M0,0 L1,0 L1,1 L0,1 Z " fill="#808080" opacity="0.047058824" transform="translate(9,1)"/>
<path d="M0,0 L1,0 L1,1 L0,1 Z " fill="#808080" opacity="0.96862745" transform="translate(8,1)"/>
<path d="M0,0 L1,0 L1,1 L0,1 Z " fill="#818181" opacity="0.34117648" transform="translate(6,1)"/>
</svg>
