<?xml version="1.0" encoding="UTF-8"?>
<!-- Generator: visioncortex VTracer 0.6.4 -->
<svg version="1.1" xmlns="http://www.w3.org/2000/svg" width="16" height="16">
<path d="M0,0 L2,0 L2,6 L0,6 Z " fill="#E0E0E0" transform="translate(9,5)"/>
<path d="M0,0 L2,0 L2,6 L0,6 Z " fill="#E0E0E0" transform="translate(5,5)"/>
<path d="M0,0 L2,0 L2,2 L0,2 Z " fill="#E0E0E0" transform="translate(13,13)"/>
<path d="M0,0 L2,0 L2,2 L0,2 Z " fill="#E0E0E0" transform="translate(1,13)"/>
<path d="M0,0 L2,0 L2,2 L0,2 Z " fill="#E0E0E0" transform="translate(13,9)"/>
<path d="M0,0 L2,0 L2,2 L0,2 Z " fill="#E0E0E0" transform="translate(1,9)"/>
<path d="M0,0 L2,0 L2,2 L0,2 Z " fill="#E0E0E0" transform="translate(13,5)"/>
<path d="M0,0 L2,0 L2,2 L0,2 Z " fill="#E0E0E0" transform="translate(1,5)"/>
<path d="M0,0 L2,0 L2,2 L0,2 Z " fill="#E0E0E0" transform="translate(13,1)"/>
<path d="M0,0 L2,0 L2,2 L0,2 Z " fill="#E0E0E0" transform="translate(1,1)"/>
</svg>
