<?xml version="1.0" encoding="UTF-8"?>
<!-- Generator: visioncortex VTracer 0.6.4 -->
<svg version="1.1" xmlns="http://www.w3.org/2000/svg" width="16" height="16">
<path d="M0,0 L1,0 L1,1 L0,1 Z M-9,9 L-8,9 L-8,10 L-9,10 Z M-7,9 L-1,9 L-1,11 L-7,11 Z M0,9 L1,9 L1,10 L0,10 Z " fill="#E0E0E0" opacity="0.7529412" transform="translate(12,3)"/>
<path d="M0,0 L1,0 L1,1 L0,1 Z " fill="#E0E0E0" opacity="0.8392157" transform="translate(9,6)"/>
<path d="M0,0 L5,0 L5,2 L-1,2 L-1,1 L0,1 Z " fill="#E0E0E0" opacity="0.7529412" transform="translate(6,2)"/>
<path d="M0,0 L1,0 L1,1 L0,1 Z M1,2 L2,2 L2,8 L0,8 L0,3 L1,3 Z M0,9 L1,9 L1,10 L0,10 Z " fill="#E0E0E0" opacity="0.7529412" transform="translate(12,3)"/>
<path d="M0,0 L2,0 L2,6 L0,6 Z M1,7 L2,7 L2,8 L1,8 Z " fill="#E0E0E0" opacity="0.7529412" transform="translate(2,5)"/>
<path d="M0,0 L1,0 L1,3 L0,3 Z M2,4 L5,4 L5,5 L2,5 Z " fill="#E0E0E0" transform="translate(0,11)"/>
<path d="M0,0 L3,0 L3,1 L0,1 Z M4,2 L5,2 L5,5 L4,5 Z " fill="#E0E0E0" transform="translate(11,0)"/>
<path d="M0,0 L1,0 L1,1 L0,1 Z " fill="#E1E1E1" opacity="0.49411765" transform="translate(6,8)"/>
<path d="M0,0 L3,0 L3,1 L0,1 Z " fill="#E0E0E0" transform="translate(11,0)"/>
<path d="M0,0 L1,0 L1,3 L0,3 Z " fill="#E0E0E0" transform="translate(0,11)"/>
<path d="M0,0 L1,0 L1,1 L0,1 Z M1,1 L2,1 L2,2 L1,2 Z " fill="#E0E0E0" opacity="0.98039216" transform="translate(0,14)"/>
<path d="M0,0 L1,0 L1,1 L0,1 Z " fill="#E0E0E0" opacity="0.8627451" transform="translate(7,10)"/>
<path d="M0,0 L1,0 L1,1 L0,1 Z " fill="#E1E1E1" opacity="0.56078434" transform="translate(8,9)"/>
<path d="M0,0 L1,0 L1,1 L0,1 Z " fill="#E0E0E0" opacity="0.02745098" transform="translate(4,8)"/>
<path d="M0,0 L1,0 L1,1 L0,1 Z " fill="#E0E0E0" opacity="0.7372549" transform="translate(2,4)"/>
<path d="M0,0 L1,0 L1,1 L0,1 Z M-1,1 L0,1 L0,2 L-1,2 Z " fill="#E1E1E1" opacity="0.49019608" transform="translate(13,12)"/>
<path d="M0,0 L1,0 L1,1 L0,1 Z M1,1 L2,1 L2,2 L1,2 Z " fill="#E1E1E1" opacity="0.49803922" transform="translate(2,12)"/>
<path d="M0,0 L1,0 L1,2 L-1,2 L-1,1 L0,1 Z " fill="#E0E0E0" opacity="0.78431374" transform="translate(12,11)"/>
<path d="M0,0 L1,0 L1,1 L2,1 L2,2 L0,2 Z " fill="#E1E1E1" opacity="0.78039217" transform="translate(3,11)"/>
<path d="M0,0 L2,0 L2,2 L1,2 L1,1 L0,1 Z " fill="#E1E1E1" opacity="0.78039217" transform="translate(11,3)"/>
<path d="M0,0 L1,0 L1,1 L0,1 Z M-1,1 L0,1 L0,2 L-1,2 Z " fill="#E0E0E0" opacity="0.7764706" transform="translate(4,3)"/>
<path d="M0,0 L1,0 L1,1 L0,1 Z M1,1 L2,1 L2,2 L1,2 Z " fill="#E0E0E0" opacity="0.5019608" transform="translate(12,2)"/>
<path d="M0,0 L1,0 L1,1 L0,1 Z " fill="#E0E0E0" opacity="0.98039216" transform="translate(15,1)"/>
<path d="M0,0 L1,0 L1,1 L0,1 Z " fill="#E0E0E0" opacity="0.9843137" transform="translate(0,10)"/>
<path d="M0,0 L1,0 L1,1 L0,1 Z " fill="#E1E1E1" opacity="0.84313726" transform="translate(7,9)"/>
<path d="M0,0 L1,0 L1,1 L0,1 Z " fill="#E0E0E0" opacity="0.5137255" transform="translate(8,7)"/>
<path d="M0,0 L1,0 L1,1 L0,1 Z " fill="#E0E0E0" opacity="0.015686275" transform="translate(6,7)"/>
<path d="M0,0 L1,0 L1,1 L0,1 Z " fill="#E0E0E0" opacity="0.7529412" transform="translate(5,2)"/>
<path d="M0,0 L1,0 L1,1 L0,1 Z " fill="#E0E0E0" opacity="0.5058824" transform="translate(3,2)"/>
<path d="M0,0 L1,0 L1,1 L0,1 Z " fill="#E0E0E0" opacity="0.9843137" transform="translate(10,0)"/>
<path d="M0,0 L1,0 L1,1 L0,1 Z " fill="#E0E0E0" opacity="0.54509807" transform="translate(6,15)"/>
<path d="M0,0 L1,0 L1,1 L0,1 Z " fill="#E0E0E0" opacity="0.98039216" transform="translate(5,15)"/>
<path d="M0,0 L1,0 L1,1 L0,1 Z " fill="#E1E1E1" opacity="0.5294118" transform="translate(0,15)"/>
<path d="M0,0 L1,0 L1,1 L0,1 Z " fill="#E0E0E0" opacity="0.05490196" transform="translate(1,14)"/>
<path d="M0,0 L1,0 L1,1 L0,1 Z " fill="#E1E1E1" opacity="0.023529412" transform="translate(13,13)"/>
<path d="M0,0 L1,0 L1,1 L0,1 Z " fill="#E0E0E0" opacity="0.73333335" transform="translate(11,13)"/>
<path d="M0,0 L1,0 L1,1 L0,1 Z " fill="#E0E0E0" opacity="0.7372549" transform="translate(4,13)"/>
<path d="M0,0 L1,0 L1,1 L0,1 Z " fill="#E1E1E1" opacity="0.023529412" transform="translate(2,13)"/>
<path d="M0,0 L1,0 L1,1 L0,1 Z " fill="#E0E0E0" transform="translate(12,12)"/>
<path d="M0,0 L1,0 L1,1 L0,1 Z " fill="#E0E0E0" transform="translate(3,12)"/>
<path d="M0,0 L1,0 L1,1 L0,1 Z " fill="#E0E0E0" opacity="0.73333335" transform="translate(13,11)"/>
<path d="M0,0 L1,0 L1,1 L0,1 Z " fill="#E0E0E0" opacity="0.02745098" transform="translate(7,11)"/>
<path d="M0,0 L1,0 L1,1 L0,1 Z " fill="#E0E0E0" opacity="0.7372549" transform="translate(2,11)"/>
<path d="M0,0 L1,0 L1,1 L0,1 Z " fill="#E1E1E1" opacity="0.043137256" transform="translate(8,10)"/>
<path d="M0,0 L1,0 L1,1 L0,1 Z " fill="#E1E1E1" opacity="0.49803922" transform="translate(6,10)"/>
<path d="M0,0 L1,0 L1,1 L0,1 Z " fill="#E0E0E0" opacity="0.9647059" transform="translate(6,9)"/>
<path d="M0,0 L1,0 L1,1 L0,1 Z " fill="#E1E1E1" opacity="0.2" transform="translate(5,9)"/>
<path d="M0,0 L1,0 L1,1 L0,1 Z " fill="#E1E1E1" opacity="0.5529412" transform="translate(0,9)"/>
<path d="M0,0 L1,0 L1,1 L0,1 Z " fill="#E4E4E4" opacity="0.21568628" transform="translate(9,8)"/>
<path d="M0,0 L1,0 L1,1 L0,1 Z " fill="#E0E0E0" opacity="0.96862745" transform="translate(8,8)"/>
<path d="M0,0 L1,0 L1,1 L0,1 Z " fill="#E3E3E3" opacity="0.1764706" transform="translate(7,8)"/>
<path d="M0,0 L1,0 L1,1 L0,1 Z " fill="#E0E0E0" opacity="0.8352941" transform="translate(5,8)"/>
<path d="M0,0 L1,0 L1,1 L0,1 Z " fill="#E1E1E1" opacity="0.019607844" transform="translate(10,7)"/>
<path d="M0,0 L1,0 L1,1 L0,1 Z " fill="#E0E0E0" opacity="0.827451" transform="translate(9,7)"/>
<path d="M0,0 L1,0 L1,1 L0,1 Z " fill="#E0E0E0" opacity="0.3529412" transform="translate(5,7)"/>
<path d="M0,0 L1,0 L1,1 L0,1 Z " fill="#E0E0E0" opacity="0.003921569" transform="translate(4,7)"/>
<path d="M0,0 L1,0 L1,1 L0,1 Z " fill="#E0E0E0" opacity="0.54509807" transform="translate(15,6)"/>
<path d="M0,0 L1,0 L1,1 L0,1 Z " fill="#E1E1E1" opacity="0.49411765" transform="translate(10,6)"/>
<path d="M0,0 L1,0 L1,1 L0,1 Z " fill="#E0E0E0" opacity="0.023529412" transform="translate(8,6)"/>
<path d="M0,0 L1,0 L1,1 L0,1 Z " fill="#E0E0E0" opacity="0.98039216" transform="translate(15,5)"/>
<path d="M0,0 L1,0 L1,1 L0,1 Z " fill="#E0E0E0" opacity="0.7529412" transform="translate(12,5)"/>
<path d="M0,0 L1,0 L1,1 L0,1 Z " fill="#E0E0E0" opacity="0.03529412" transform="translate(11,5)"/>
<path d="M0,0 L1,0 L1,1 L0,1 Z " fill="#E0E0E0" opacity="0.8862745" transform="translate(10,5)"/>
<path d="M0,0 L1,0 L1,1 L0,1 Z " fill="#E1E1E1" opacity="0.22745098" transform="translate(9,5)"/>
<path d="M0,0 L1,0 L1,1 L0,1 Z " fill="#E0E0E0" opacity="0.7372549" transform="translate(13,4)"/>
<path d="M0,0 L1,0 L1,1 L0,1 Z " fill="#E0E0E0" opacity="0.03137255" transform="translate(10,4)"/>
<path d="M0,0 L1,0 L1,1 L0,1 Z " fill="#E0E0E0" transform="translate(12,3)"/>
<path d="M0,0 L1,0 L1,1 L0,1 Z " fill="#E0E0E0" opacity="0.99215686" transform="translate(3,3)"/>
<path d="M0,0 L1,0 L1,1 L0,1 Z " fill="#E0E0E0" opacity="0.50980395" transform="translate(2,3)"/>
<path d="M0,0 L1,0 L1,1 L0,1 Z " fill="#E0E0E0" opacity="0.02745098" transform="translate(13,2)"/>
<path d="M0,0 L1,0 L1,1 L0,1 Z " fill="#E0E0E0" opacity="0.7372549" transform="translate(11,2)"/>
<path d="M0,0 L1,0 L1,1 L0,1 Z " fill="#E0E0E0" opacity="0.7372549" transform="translate(4,2)"/>
<path d="M0,0 L1,0 L1,1 L0,1 Z " fill="#E0E0E0" opacity="0.02745098" transform="translate(2,2)"/>
<path d="M0,0 L1,0 L1,1 L0,1 Z " fill="#E0E0E0" opacity="0.05490196" transform="translate(14,1)"/>
<path d="M0,0 L1,0 L1,1 L0,1 Z " fill="#E1E1E1" opacity="0.5294118" transform="translate(15,0)"/>
<path d="M0,0 L1,0 L1,1 L0,1 Z " fill="#E0E0E0" opacity="0.9764706" transform="translate(14,0)"/>
<path d="M0,0 L1,0 L1,1 L0,1 Z " fill="#E1E1E1" opacity="0.5568628" transform="translate(9,0)"/>
</svg>
