<?xml version="1.0" encoding="UTF-8"?>
<!-- Generator: visioncortex VTracer 0.6.4 -->
<svg version="1.1" xmlns="http://www.w3.org/2000/svg" width="16" height="16">
<path d="M0,0 L2,0 L2,1 L0,1 Z M-3,1 L-1,1 L-1,2 L-3,2 Z M3,1 L4,1 L4,2 L3,2 Z M-4,2 L-3,2 L-3,3 L-4,3 Z M5,2 L6,2 L6,3 L5,3 Z M-5,3 L-4,3 L-4,5 L-5,5 Z M6,3 L7,3 L7,5 L6,5 Z M-6,6 L-5,6 L-5,8 L-6,8 Z M0,6 L2,6 L2,8 L0,8 Z M7,6 L8,6 L8,8 L7,8 Z M-5,9 L-4,9 L-4,11 L-5,11 Z M6,9 L7,9 L7,11 L6,11 Z M-4,11 L-3,11 L-3,12 L-4,12 Z M5,11 L6,11 L6,12 L5,12 Z M-3,12 L0,12 L0,13 L-3,13 Z M3,12 L5,12 L5,13 L3,13 Z M0,13 L2,13 L2,14 L0,14 Z " fill="#FFCA5D" opacity="0.972549" transform="translate(7,1)"/>
<path d="M0,0 L2,0 L2,1 L0,1 Z M-3,1 L-1,1 L-1,2 L-3,2 Z M3,1 L5,1 L5,2 L3,2 Z M-4,2 L-3,2 L-3,3 L-4,3 Z M5,2 L6,2 L6,3 L5,3 Z M-5,3 L-4,3 L-4,5 L-5,5 Z M6,3 L7,3 L7,4 L6,4 Z " fill="#FFCA5E" opacity="0.99215686" transform="translate(7,1)"/>
<path d="M0,0 L1,0 L1,1 L0,1 Z M-6,2 L-4,2 L-4,4 L-6,4 Z M1,2 L2,2 L2,4 L0,4 L0,3 L1,3 Z M0,5 L1,5 L1,7 L0,7 Z " fill="#FFCA5F" opacity="0.96862745" transform="translate(13,5)"/>
<path d="M0,0 L2,0 L2,1 L0,1 Z M-1,1 L0,1 L0,2 L-1,2 Z M-2,2 L-1,2 L-1,4 L-2,4 Z " fill="#FFCA5E" transform="translate(4,2)"/>
<path d="M0,0 L2,0 L2,3 L0,3 Z " fill="#FFCA5E" opacity="0.7529412" transform="translate(7,3)"/>
<path d="M0,0 L1,0 L1,2 L0,2 Z M1,2 L2,2 L2,5 L1,5 Z " fill="#FFC95E" opacity="0.9647059" transform="translate(1,7)"/>
<path d="M0,0 L2,0 L2,2 L0,2 Z M3,0 L6,0 L6,2 L3,2 Z " fill="#FFCA5E" opacity="0.7529412" transform="translate(7,7)"/>
<path d="M0,0 L1,0 L1,1 L0,1 Z M1,1 L2,1 L2,2 L1,2 Z " fill="#FFC95E" transform="translate(3,12)"/>
<path d="M0,0 L1,0 L1,1 L0,1 Z M1,1 L2,1 L2,2 L1,2 Z " fill="#FFC95D" transform="translate(12,3)"/>
<path d="M0,0 L2,0 L2,1 L0,1 Z " fill="#FFCB5E" opacity="0.972549" transform="translate(11,12)"/>
<path d="M0,0 L1,0 L1,1 L0,1 Z " fill="#FFCA5D" opacity="0.3019608" transform="translate(6,7)"/>
<path d="M0,0 L2,0 L2,1 L0,1 Z " fill="#FFCA5E" transform="translate(4,2)"/>
<path d="M0,0 L2,0 L2,1 L0,1 Z M-1,1 L0,1 L0,2 L-1,2 Z " fill="#FFCA5E" opacity="0.9490196" transform="translate(10,13)"/>
<path d="M0,0 L2,0 L2,1 L0,1 Z M-1,1 L0,1 L0,2 L-1,2 Z " fill="#FFCA5E" opacity="0.972549" transform="translate(7,1)"/>
<path d="M0,0 L1,0 L1,2 L0,2 Z M1,2 L2,2 L2,4 L1,4 Z " fill="#FFC95E" opacity="0.9764706" transform="translate(13,5)"/>
<path d="M0,0 L1,0 L1,2 L0,2 Z " fill="#FFC95E" transform="translate(1,7)"/>
<path d="M0,0 L2,0 L2,2 L0,2 Z " fill="#FFCA5F" transform="translate(7,7)"/>
<path d="M0,0 L1,0 L1,1 L0,1 Z " fill="#FFC95E" transform="translate(12,3)"/>
<path d="M0,0 L1,0 L1,1 L0,1 Z " fill="#FFCA5F" opacity="0.96862745" transform="translate(9,2)"/>
<path d="M0,0 L1,0 L1,1 L0,1 Z " fill="#FFCA5E" transform="translate(3,12)"/>
<path d="M0,0 L1,0 L1,1 L0,1 Z " fill="#FFC95E" opacity="0.98039216" transform="translate(12,11)"/>
<path d="M0,0 L1,0 L1,1 L0,1 Z " fill="#FFCB5E" opacity="0.972549" transform="translate(3,11)"/>
<path d="M0,0 L2,0 L2,1 L0,1 Z " fill="#FFC95F" opacity="0.29411766" transform="translate(7,9)"/>
<path d="M0,0 L1,0 L1,1 L0,1 Z " fill="#FFC95D" opacity="0.827451" transform="translate(8,6)"/>
<path d="M0,0 L1,0 L1,1 L0,1 Z " fill="#FFCA5E" transform="translate(3,3)"/>
<path d="M0,0 L2,0 L2,1 L0,1 Z " fill="#FFC95E" transform="translate(7,14)"/>
<path d="M0,0 L1,0 L1,1 L0,1 Z " fill="#FFCA5E" opacity="0.75686276" transform="translate(5,14)"/>
<path d="M0,0 L2,0 L2,1 L0,1 Z " fill="#FFC95E" transform="translate(10,13)"/>
<path d="M0,0 L1,0 L1,1 L0,1 Z " fill="#FFC95D" opacity="0.85490197" transform="translate(8,13)"/>
<path d="M0,0 L1,0 L1,2 L0,2 Z " fill="#FFCA5E" transform="translate(13,10)"/>
<path d="M0,0 L1,0 L1,2 L0,2 Z " fill="#FFC95E" transform="translate(2,10)"/>
<path d="M0,0 L1,0 L1,2 L0,2 Z " fill="#FFCA5E" transform="translate(14,7)"/>
<path d="M0,0 L1,0 L1,2 L0,2 Z " fill="#FFCA5F" opacity="0.8235294" transform="translate(9,7)"/>
<path d="M0,0 L1,0 L1,1 L0,1 Z " fill="#FFC95E" opacity="0.84705883" transform="translate(2,8)"/>
<path d="M0,0 L1,0 L1,1 L0,1 Z " fill="#FFC95F" opacity="0.9607843" transform="translate(2,6)"/>
<path d="M0,0 L1,0 L1,1 L0,1 Z " fill="#FFC95E" opacity="0.7137255" transform="translate(14,5)"/>
<path d="M0,0 L1,0 L1,1 L0,1 Z " fill="#FFC95E" opacity="0.7529412" transform="translate(1,5)"/>
<path d="M0,0 L2,0 L2,1 L0,1 Z " fill="#FFC95E" transform="translate(7,1)"/>
<path d="M0,0 L1,0 L1,1 L0,1 Z " fill="#FFCA5E" opacity="0.74509805" transform="translate(5,1)"/>
<path d="M0,0 L1,0 L1,1 L0,1 Z " fill="#FFC95B" opacity="0.10980392" transform="translate(11,14)"/>
<path d="M0,0 L1,0 L1,1 L0,1 Z " fill="#FFCA5D" opacity="0.7372549" transform="translate(10,14)"/>
<path d="M0,0 L1,0 L1,1 L0,1 Z " fill="#FFC95E" transform="translate(7,14)"/>
<path d="M0,0 L1,0 L1,1 L0,1 Z " fill="#FFCA5E" opacity="0.9647059" transform="translate(6,14)"/>
<path d="M0,0 L1,0 L1,1 L0,1 Z " fill="#FFCC60" opacity="0.15686275" transform="translate(4,14)"/>
<path d="M0,0 L1,0 L1,1 L0,1 Z " fill="#FFCA5E" opacity="0.52156866" transform="translate(12,13)"/>
<path d="M0,0 L1,0 L1,1 L0,1 Z " fill="#FFCA5E" transform="translate(10,13)"/>
<path d="M0,0 L1,0 L1,1 L0,1 Z " fill="#FFCA5E" opacity="0.96862745" transform="translate(9,13)"/>
<path d="M0,0 L1,0 L1,1 L0,1 Z " fill="#FFCB5F" opacity="0.85490197" transform="translate(7,13)"/>
<path d="M0,0 L1,0 L1,1 L0,1 Z " fill="#FFCA5F" transform="translate(5,13)"/>
<path d="M0,0 L1,0 L1,1 L0,1 Z " fill="#FFCC5D" opacity="0.54901963" transform="translate(3,13)"/>
<path d="M0,0 L1,0 L1,1 L0,1 Z " fill="#FFC95F" opacity="0.5176471" transform="translate(13,12)"/>
<path d="M0,0 L1,0 L1,1 L0,1 Z " fill="#FFC95E" transform="translate(12,12)"/>
<path d="M0,0 L1,0 L1,1 L0,1 Z " fill="#FFC85F" opacity="0.4" transform="translate(10,12)"/>
<path d="M0,0 L1,0 L1,1 L0,1 Z " fill="#FFCC5E" opacity="0.37254903" transform="translate(5,12)"/>
<path d="M0,0 L1,0 L1,1 L0,1 Z " fill="#FFC95E" opacity="0.9764706" transform="translate(4,12)"/>
<path d="M0,0 L1,0 L1,1 L0,1 Z " fill="#FFCB5C" opacity="0.5529412" transform="translate(2,12)"/>
<path d="M0,0 L1,0 L1,1 L0,1 Z " fill="#FFCC51" opacity="0.09803922" transform="translate(14,11)"/>
<path d="M0,0 L1,0 L1,1 L0,1 Z " fill="#FFCE58" opacity="0.101960786" transform="translate(11,11)"/>
<path d="M0,0 L1,0 L1,1 L0,1 Z " fill="#FFCB5E" opacity="0.06666667" transform="translate(4,11)"/>
<path d="M0,0 L1,0 L1,1 L0,1 Z " fill="#FFC95B" opacity="0.16470589" transform="translate(1,11)"/>
<path d="M0,0 L1,0 L1,1 L0,1 Z " fill="#FFCA5D" opacity="0.70980394" transform="translate(14,10)"/>
<path d="M0,0 L1,0 L1,1 L0,1 Z " fill="#FFCA5F" transform="translate(13,10)"/>
<path d="M0,0 L1,0 L1,1 L0,1 Z " fill="#FFCB5F" opacity="0.4" transform="translate(12,10)"/>
<path d="M0,0 L1,0 L1,1 L0,1 Z " fill="#FFCC5F" opacity="0.36862746" transform="translate(3,10)"/>
<path d="M0,0 L1,0 L1,1 L0,1 Z " fill="#FFCA5E" transform="translate(2,10)"/>
<path d="M0,0 L1,0 L1,1 L0,1 Z " fill="#FFCB5E" opacity="0.76862746" transform="translate(1,10)"/>
<path d="M0,0 L1,0 L1,1 L0,1 Z " fill="#FFCA5E" opacity="0.95686275" transform="translate(14,9)"/>
<path d="M0,0 L1,0 L1,1 L0,1 Z " fill="#FFC95F" opacity="0.98039216" transform="translate(13,9)"/>
<path d="M0,0 L1,0 L1,1 L0,1 Z " fill="#FFCA5F" opacity="0.007843138" transform="translate(9,9)"/>
<path d="M0,0 L1,0 L1,1 L0,1 Z " fill="#FFCA5E" opacity="0.007843138" transform="translate(6,9)"/>
<path d="M0,0 L1,0 L1,1 L0,1 Z " fill="#FFCA5E" opacity="0.96862745" transform="translate(1,9)"/>
<path d="M0,0 L1,0 L1,1 L0,1 Z " fill="#FFCA5E" opacity="0.29803923" transform="translate(6,8)"/>
<path d="M0,0 L1,0 L1,1 L0,1 Z " fill="#FFCA5D" transform="translate(14,7)"/>
<path d="M0,0 L1,0 L1,1 L0,1 Z " fill="#FFCA5E" opacity="0.96862745" transform="translate(13,7)"/>
<path d="M0,0 L1,0 L1,1 L0,1 Z " fill="#FFCA5E" opacity="0.84313726" transform="translate(2,7)"/>
<path d="M0,0 L1,0 L1,1 L0,1 Z " fill="#FFCA5D" opacity="0.9411765" transform="translate(14,6)"/>
<path d="M0,0 L1,0 L1,1 L0,1 Z " fill="#FFC95D" opacity="0.007843138" transform="translate(9,6)"/>
<path d="M0,0 L1,0 L1,1 L0,1 Z " fill="#FFCA5D" opacity="0.827451" transform="translate(7,6)"/>
<path d="M0,0 L1,0 L1,1 L0,1 Z " fill="#FFCA5D" opacity="0.007843138" transform="translate(6,6)"/>
<path d="M0,0 L1,0 L1,1 L0,1 Z " fill="#FFC95E" opacity="0.9647059" transform="translate(1,6)"/>
<path d="M0,0 L1,0 L1,1 L0,1 Z " fill="#FFCA5F" transform="translate(13,5)"/>
<path d="M0,0 L1,0 L1,1 L0,1 Z " fill="#FFC85C" opacity="0.4" transform="translate(12,5)"/>
<path d="M0,0 L1,0 L1,1 L0,1 Z " fill="#FFCB5D" opacity="0.3647059" transform="translate(3,5)"/>
<path d="M0,0 L1,0 L1,1 L0,1 Z " fill="#FFCC51" opacity="0.09803922" transform="translate(14,4)"/>
<path d="M0,0 L1,0 L1,1 L0,1 Z " fill="#FFCA5E" opacity="0.9764706" transform="translate(12,4)"/>
<path d="M0,0 L1,0 L1,1 L0,1 Z " fill="#FFCC55" opacity="0.11764706" transform="translate(11,4)"/>
<path d="M0,0 L1,0 L1,1 L0,1 Z " fill="#FFD151" opacity="0.08627451" transform="translate(4,4)"/>
<path d="M0,0 L1,0 L1,1 L0,1 Z " fill="#FFCA5E" opacity="0.96862745" transform="translate(3,4)"/>
<path d="M0,0 L1,0 L1,1 L0,1 Z " fill="#FFCA5E" transform="translate(2,4)"/>
<path d="M0,0 L1,0 L1,1 L0,1 Z " fill="#FFCA59" opacity="0.16862746" transform="translate(1,4)"/>
<path d="M0,0 L1,0 L1,1 L0,1 Z " fill="#FFCA5C" opacity="0.5019608" transform="translate(13,3)"/>
<path d="M0,0 L1,0 L1,1 L0,1 Z " fill="#FFC95E" opacity="0.9764706" transform="translate(11,3)"/>
<path d="M0,0 L1,0 L1,1 L0,1 Z " fill="#FFC85C" opacity="0.38039216" transform="translate(10,3)"/>
<path d="M0,0 L1,0 L1,1 L0,1 Z " fill="#FFCB5E" opacity="0.36078432" transform="translate(5,3)"/>
<path d="M0,0 L1,0 L1,1 L0,1 Z " fill="#FFCA5E" opacity="0.9764706" transform="translate(4,3)"/>
<path d="M0,0 L1,0 L1,1 L0,1 Z " fill="#FFCA5D" opacity="0.54509807" transform="translate(2,3)"/>
<path d="M0,0 L1,0 L1,1 L0,1 Z " fill="#FFCB5D" opacity="0.5176471" transform="translate(12,2)"/>
<path d="M0,0 L1,0 L1,1 L0,1 Z " fill="#FFCA5E" transform="translate(10,2)"/>
<path d="M0,0 L1,0 L1,1 L0,1 Z " fill="#FFC95E" opacity="0.9647059" transform="translate(8,2)"/>
<path d="M0,0 L1,0 L1,1 L0,1 Z " fill="#FFC95E" opacity="0.96862745" transform="translate(7,2)"/>
<path d="M0,0 L1,0 L1,1 L0,1 Z " fill="#FFC95E" transform="translate(4,2)"/>
<path d="M0,0 L1,0 L1,1 L0,1 Z " fill="#FFCA5C" opacity="0.5294118" transform="translate(3,2)"/>
<path d="M0,0 L1,0 L1,1 L0,1 Z " fill="#FFC952" opacity="0.10980392" transform="translate(11,1)"/>
<path d="M0,0 L1,0 L1,1 L0,1 Z " fill="#FFCA5D" opacity="0.69803923" transform="translate(10,1)"/>
<path d="M0,0 L1,0 L1,1 L0,1 Z " fill="#FFCA5E" opacity="0.9529412" transform="translate(9,1)"/>
<path d="M0,0 L1,0 L1,1 L0,1 Z " fill="#FFC95D" opacity="0.9647059" transform="translate(6,1)"/>
<path d="M0,0 L1,0 L1,1 L0,1 Z " fill="#FFC45B" opacity="0.15294118" transform="translate(4,1)"/>
</svg>
