<?xml version="1.0" encoding="UTF-8"?>
<!-- Generator: visioncortex VTracer 0.6.4 -->
<svg version="1.1" xmlns="http://www.w3.org/2000/svg" width="16" height="16">
<path d="M0,0 L1,0 L1,1 L5,1 L5,2 L6,2 L6,3 L7,3 L7,5 L8,5 L8,11 L7,11 L7,13 L6,13 L6,14 L4,14 L4,15 L-2,15 L-2,14 L-4,14 L-4,13 L-5,13 L-5,12 L-6,12 L-6,4 L-5,4 L-5,3 L-4,3 L-4,2 L-3,2 L-3,1 L0,1 Z M-2,3 L-2,4 L-3,4 L-3,5 L-4,5 L-4,7 L-3,7 L-3,9 L-4,9 L-4,11 L-3,11 L-3,12 L-2,12 L-2,13 L0,13 L0,12 L2,12 L2,13 L4,13 L4,12 L5,12 L5,11 L6,11 L6,9 L5,9 L5,7 L6,7 L6,5 L5,5 L5,4 L4,4 L4,3 L2,3 L2,4 L0,4 L0,3 Z " fill="#FC7E7E" transform="translate(7,0)"/>
<path d="M0,0 L1,0 L1,1 L0,1 Z M-1,1 L0,1 L0,2 L-1,2 Z " fill="#FC7E7E" opacity="0.9490196" transform="translate(7,11)"/>
<path d="M0,0 L1,0 L1,1 L0,1 Z M-1,1 L0,1 L0,2 L-1,2 Z " fill="#FC7F7F" opacity="0.9372549" transform="translate(4,8)"/>
<path d="M0,0 L1,0 L1,1 L0,1 Z M-1,1 L0,1 L0,2 L-1,2 Z " fill="#FC7F7F" opacity="0.9372549" transform="translate(9,3)"/>
<path d="M0,0 L1,0 L1,1 L0,1 Z M-1,1 L0,1 L0,2 L-1,2 Z " fill="#FC7E7E" opacity="0.9490196" transform="translate(12,6)"/>
<path d="M0,0 L1,0 L1,1 L0,1 Z " fill="#FC7E7E" transform="translate(4,1)"/>
<path d="M0,0 L1,0 L1,1 L0,1 Z " fill="#FD7E7E" opacity="0.74509805" transform="translate(2,13)"/>
<path d="M0,0 L1,0 L1,1 L0,1 Z " fill="#FD7E7E" opacity="0.74509805" transform="translate(13,2)"/>
<path d="M0,0 L1,0 L1,1 L0,1 Z M-1,1 L0,1 L0,2 L-1,2 Z " fill="#FC7F7F" transform="translate(3,2)"/>
<path d="M0,0 L1,0 L1,1 L0,1 Z " fill="#FC7E7E" opacity="0.9411765" transform="translate(9,12)"/>
<path d="M0,0 L1,0 L1,1 L0,1 Z M-1,1 L0,1 L0,2 L-1,2 Z " fill="#FF8080" opacity="0.21960784" transform="translate(7,10)"/>
<path d="M0,0 L1,0 L1,1 L0,1 Z " fill="#FC7E7E" opacity="0.9411765" transform="translate(12,9)"/>
<path d="M0,0 L1,0 L1,1 L0,1 Z M-1,1 L0,1 L0,2 L-1,2 Z " fill="#FF8080" opacity="0.21960784" transform="translate(11,6)"/>
<path d="M0,0 L1,0 L1,1 L0,1 Z M1,1 L2,1 L2,2 L1,2 Z " fill="#FF7D7D" opacity="0.20784314" transform="translate(4,6)"/>
<path d="M0,0 L1,0 L1,1 L0,1 Z M1,1 L2,1 L2,2 L1,2 Z " fill="#FC7E7E" opacity="0.9411765" transform="translate(3,6)"/>
<path d="M0,0 L1,0 L1,1 L0,1 Z M1,1 L2,1 L2,2 L1,2 Z " fill="#FF7D7D" opacity="0.20784314" transform="translate(6,4)"/>
<path d="M0,0 L1,0 L1,1 L0,1 Z M1,1 L2,1 L2,2 L1,2 Z " fill="#FC7E7E" opacity="0.9411765" transform="translate(6,3)"/>
<path d="M0,0 L2,0 L2,1 L0,1 Z " fill="#FC7F7F" opacity="0.9529412" transform="translate(7,15)"/>
<path d="M0,0 L1,0 L1,1 L0,1 Z " fill="#FC7F7F" opacity="0.56078434" transform="translate(5,15)"/>
<path d="M0,0 L1,0 L1,1 L0,1 Z " fill="#FC7F7F" opacity="0.9529412" transform="translate(15,7)"/>
<path d="M0,0 L1,0 L1,1 L0,1 Z " fill="#FC7E7E" opacity="0.95686275" transform="translate(0,7)"/>
<path d="M0,0 L1,0 L1,1 L0,1 Z " fill="#FC7F7F" opacity="0.56078434" transform="translate(15,5)"/>
<path d="M0,0 L1,0 L1,1 L0,1 Z " fill="#FC7E7E" opacity="0.57254905" transform="translate(0,5)"/>
<path d="M0,0 L1,0 L1,1 L0,1 Z M-1,1 L0,1 L0,2 L-1,2 Z " fill="#FC7E7E" opacity="0.02745098" transform="translate(2,1)"/>
<path d="M0,0 L1,0 L1,1 L0,1 Z " fill="#FF8080" opacity="0.17254902" transform="translate(11,0)"/>
<path d="M0,0 L1,0 L1,1 L0,1 Z " fill="#FC7E7E" opacity="0.57254905" transform="translate(5,0)"/>
<path d="M0,0 L1,0 L1,1 L0,1 Z " fill="#FF8080" opacity="0.16470589" transform="translate(11,15)"/>
<path d="M0,0 L1,0 L1,1 L0,1 Z " fill="#FC7E7E" opacity="0.5568628" transform="translate(10,15)"/>
<path d="M0,0 L1,0 L1,1 L0,1 Z " fill="#FC7E7E" opacity="0.83137256" transform="translate(9,15)"/>
<path d="M0,0 L1,0 L1,1 L0,1 Z " fill="#FC7F7F" opacity="0.8352941" transform="translate(6,15)"/>
<path d="M0,0 L1,0 L1,1 L0,1 Z " fill="#FF8080" opacity="0.17254902" transform="translate(4,15)"/>
<path d="M0,0 L1,0 L1,1 L0,1 Z " fill="#FD7F7F" opacity="0.023529412" transform="translate(13,14)"/>
<path d="M0,0 L1,0 L1,1 L0,1 Z " fill="#FC7F7F" opacity="0.5686275" transform="translate(12,14)"/>
<path d="M0,0 L1,0 L1,1 L0,1 Z " fill="#FC7F7F" opacity="0.99215686" transform="translate(11,14)"/>
<path d="M0,0 L1,0 L1,1 L0,1 Z " fill="#FC7F7F" opacity="0.99215686" transform="translate(4,14)"/>
<path d="M0,0 L1,0 L1,1 L0,1 Z " fill="#FC7E7E" opacity="0.5803922" transform="translate(3,14)"/>
<path d="M0,0 L1,0 L1,1 L0,1 Z " fill="#FD7E7E" opacity="0.02745098" transform="translate(2,14)"/>
<path d="M0,0 L1,0 L1,1 L0,1 Z " fill="#FC7F7F" opacity="0.023529412" transform="translate(14,13)"/>
<path d="M0,0 L1,0 L1,1 L0,1 Z " fill="#FD7F7F" opacity="0.73333335" transform="translate(13,13)"/>
<path d="M0,0 L1,0 L1,1 L0,1 Z " fill="#FC7F7F" opacity="0.02745098" transform="translate(1,13)"/>
<path d="M0,0 L1,0 L1,1 L0,1 Z " fill="#FC7F7F" opacity="0.5686275" transform="translate(14,12)"/>
<path d="M0,0 L1,0 L1,1 L0,1 Z " fill="#FC7F7F" opacity="0.5764706" transform="translate(10,12)"/>
<path d="M0,0 L1,0 L1,1 L0,1 Z " fill="#FC7E7E" opacity="0.57254905" transform="translate(5,12)"/>
<path d="M0,0 L1,0 L1,1 L0,1 Z " fill="#FC7F7F" opacity="0.58431375" transform="translate(1,12)"/>
<path d="M0,0 L1,0 L1,1 L0,1 Z " fill="#FF8080" opacity="0.16470589" transform="translate(15,11)"/>
<path d="M0,0 L1,0 L1,1 L0,1 Z " fill="#FC7F7F" opacity="0.99215686" transform="translate(14,11)"/>
<path d="M0,0 L1,0 L1,1 L0,1 Z " fill="#FD8080" opacity="0.4627451" transform="translate(11,11)"/>
<path d="M0,0 L1,0 L1,1 L0,1 Z " fill="#FF8080" opacity="0.21176471" transform="translate(9,11)"/>
<path d="M0,0 L1,0 L1,1 L0,1 Z " fill="#FC7F7F" opacity="0.94509804" transform="translate(8,11)"/>
<path d="M0,0 L1,0 L1,1 L0,1 Z " fill="#FD7E7E" opacity="0.44313726" transform="translate(4,11)"/>
<path d="M0,0 L1,0 L1,1 L0,1 Z " fill="#FC7E7E" transform="translate(1,11)"/>
<path d="M0,0 L1,0 L1,1 L0,1 Z " fill="#FF8080" opacity="0.17254902" transform="translate(0,11)"/>
<path d="M0,0 L1,0 L1,1 L0,1 Z " fill="#FC7E7E" opacity="0.5568628" transform="translate(15,10)"/>
<path d="M0,0 L1,0 L1,1 L0,1 Z " fill="#FC7F7F" opacity="0.5764706" transform="translate(12,10)"/>
<path d="M0,0 L1,0 L1,1 L0,1 Z " fill="#FF7D7D" opacity="0.21568628" transform="translate(8,10)"/>
<path d="M0,0 L1,0 L1,1 L0,1 Z " fill="#FC7E7E" opacity="0.5568628" transform="translate(3,10)"/>
<path d="M0,0 L1,0 L1,1 L0,1 Z " fill="#FC7F7F" opacity="0.5686275" transform="translate(0,10)"/>
<path d="M0,0 L1,0 L1,1 L0,1 Z " fill="#FC7E7E" opacity="0.83137256" transform="translate(15,9)"/>
<path d="M0,0 L1,0 L1,1 L0,1 Z " fill="#FF8080" opacity="0.21176471" transform="translate(11,9)"/>
<path d="M0,0 L1,0 L1,1 L0,1 Z " fill="#FF7D7D" opacity="0.2" transform="translate(4,9)"/>
<path d="M0,0 L1,0 L1,1 L0,1 Z " fill="#FC7E7E" opacity="0.8392157" transform="translate(0,9)"/>
<path d="M0,0 L1,0 L1,1 L0,1 Z " fill="#FC7F7F" opacity="0.9529412" transform="translate(15,8)"/>
<path d="M0,0 L1,0 L1,1 L0,1 Z " fill="#FC7F7F" opacity="0.94509804" transform="translate(11,8)"/>
<path d="M0,0 L1,0 L1,1 L0,1 Z " fill="#FF7D7D" opacity="0.21568628" transform="translate(10,8)"/>
<path d="M0,0 L1,0 L1,1 L0,1 Z " fill="#FF8080" opacity="0.20392157" transform="translate(5,8)"/>
<path d="M0,0 L1,0 L1,1 L0,1 Z " fill="#FC7E7E" opacity="0.95686275" transform="translate(0,8)"/>
<path d="M0,0 L1,0 L1,1 L0,1 Z " fill="#FC7F7F" opacity="0.8352941" transform="translate(15,6)"/>
<path d="M0,0 L1,0 L1,1 L0,1 Z " fill="#FC7F7F" opacity="0.84313726" transform="translate(0,6)"/>
<path d="M0,0 L1,0 L1,1 L0,1 Z " fill="#FC7E7E" opacity="0.57254905" transform="translate(12,5)"/>
<path d="M0,0 L1,0 L1,1 L0,1 Z " fill="#FF8080" opacity="0.20392157" transform="translate(8,5)"/>
<path d="M0,0 L1,0 L1,1 L0,1 Z " fill="#FC7F7F" opacity="0.5529412" transform="translate(3,5)"/>
<path d="M0,0 L1,0 L1,1 L0,1 Z " fill="#FF8080" opacity="0.17254902" transform="translate(15,4)"/>
<path d="M0,0 L1,0 L1,1 L0,1 Z " fill="#FC7F7F" opacity="0.99215686" transform="translate(14,4)"/>
<path d="M0,0 L1,0 L1,1 L0,1 Z " fill="#FD7E7E" opacity="0.44313726" transform="translate(11,4)"/>
<path d="M0,0 L1,0 L1,1 L0,1 Z " fill="#FF7D7D" opacity="0.2" transform="translate(9,4)"/>
<path d="M0,0 L1,0 L1,1 L0,1 Z " fill="#FD8080" opacity="0.42352942" transform="translate(4,4)"/>
<path d="M0,0 L1,0 L1,1 L0,1 Z " fill="#FC7E7E" transform="translate(1,4)"/>
<path d="M0,0 L1,0 L1,1 L0,1 Z " fill="#FF8080" opacity="0.18039216" transform="translate(0,4)"/>
<path d="M0,0 L1,0 L1,1 L0,1 Z " fill="#FC7E7E" opacity="0.5803922" transform="translate(14,3)"/>
<path d="M0,0 L1,0 L1,1 L0,1 Z " fill="#FC7E7E" opacity="0.5568628" transform="translate(10,3)"/>
<path d="M0,0 L1,0 L1,1 L0,1 Z " fill="#FC7F7F" opacity="0.5529412" transform="translate(5,3)"/>
<path d="M0,0 L1,0 L1,1 L0,1 Z " fill="#FC7E7E" opacity="0.59607846" transform="translate(1,3)"/>
<path d="M0,0 L1,0 L1,1 L0,1 Z " fill="#FD7E7E" opacity="0.02745098" transform="translate(14,2)"/>
<path d="M0,0 L1,0 L1,1 L0,1 Z " fill="#FC7E7E" opacity="0.7529412" transform="translate(2,2)"/>
<path d="M0,0 L1,0 L1,1 L0,1 Z " fill="#FC7F7F" opacity="0.02745098" transform="translate(13,1)"/>
<path d="M0,0 L1,0 L1,1 L0,1 Z " fill="#FC7F7F" opacity="0.58431375" transform="translate(12,1)"/>
<path d="M0,0 L1,0 L1,1 L0,1 Z " fill="#FC7E7E" opacity="0.59607846" transform="translate(3,1)"/>
<path d="M0,0 L1,0 L1,1 L0,1 Z " fill="#FC7F7F" opacity="0.5686275" transform="translate(10,0)"/>
<path d="M0,0 L1,0 L1,1 L0,1 Z " fill="#FC7E7E" opacity="0.8392157" transform="translate(9,0)"/>
<path d="M0,0 L1,0 L1,1 L0,1 Z " fill="#FC7E7E" opacity="0.95686275" transform="translate(8,0)"/>
<path d="M0,0 L1,0 L1,1 L0,1 Z " fill="#FC7F7F" opacity="0.84313726" transform="translate(6,0)"/>
<path d="M0,0 L1,0 L1,1 L0,1 Z " fill="#FF8080" opacity="0.18039216" transform="translate(4,0)"/>
</svg>
